<?xml version="1.0" standalone="no"?>
<!DOCTYPE svg PUBLIC "-//W3C//DTD SVG 20010904//EN"
 "http://www.w3.org/TR/2001/REC-SVG-20010904/DTD/svg10.dtd">
<svg version="1.0" xmlns="http://www.w3.org/2000/svg"
 width="1024.000000pt" height="1024.000000pt" viewBox="0 0 1024.000000 1024.000000"
 preserveAspectRatio="xMidYMid meet">

<g transform="translate(0.000000,1024.000000) scale(0.100000,-0.100000)"
fill="#0035fe" stroke="none">
<path d="M4890 9794 c-720 -47 -1281 -192 -1875 -484 -499 -245 -903 -537
-1290 -931 -333 -340 -573 -664 -793 -1074 -727 -1351 -727 -3019 0 -4370 220
-410 460 -734 793 -1074 654 -667 1472 -1116 2395 -1315 332 -72 610 -99 995
-99 321 0 468 10 750 54 763 118 1508 436 2130 909 343 260 684 605 939 949
783 1056 1079 2395 816 3691 -179 883 -600 1672 -1245 2329 -387 394 -791 686
-1290 931 -521 256 -1028 401 -1625 465 -139 14 -584 27 -700 19z m-479 -1540
c180 -53 312 -240 350 -496 18 -124 6 -383 -25 -538 -121 -609 -444 -1120
-1193 -1890 l-121 -125 94 -98 c52 -54 119 -136 149 -182 116 -174 202 -410
234 -640 20 -140 12 -129 89 -122 187 16 450 176 781 476 l81 73 0 -300 0
-301 -112 -83 c-216 -160 -317 -214 -493 -259 -63 -17 -286 -58 -316 -59 -3 0
-9 -71 -12 -157 -14 -394 -81 -702 -221 -1025 -69 -159 -223 -354 -343 -436
-155 -106 -404 -159 -548 -117 -200 57 -333 233 -415 548 -44 169 -61 317 -67
572 -6 285 15 530 87 995 10 69 22 147 26 173 l6 48 -133 -101 c-74 -55 -140
-100 -146 -100 -19 0 -19 549 0 572 6 9 54 41 105 73 l92 56 0 62 c0 65 21
205 40 278 44 164 139 262 269 278 52 7 39 -21 124 281 184 649 270 919 401
1252 344 876 697 1303 1082 1307 47 1 103 -6 135 -15z m2444 -53 c98 -48 187
-139 242 -251 64 -129 84 -217 84 -387 1 -157 -3 -191 -36 -343 -76 -344 -267
-731 -573 -1158 -68 -96 -121 -176 -119 -179 3 -3 18 4 34 15 43 31 250 150
328 190 39 19 108 48 155 65 75 27 99 30 195 31 92 0 118 -4 158 -22 153 -69
235 -214 259 -456 23 -231 -20 -461 -167 -896 -191 -569 -236 -833 -156 -922
24 -27 33 -30 82 -29 201 2 513 239 913 694 77 86 143 157 148 157 4 0 8 -134
8 -297 l0 -298 -147 -145 c-209 -206 -366 -327 -582 -452 -186 -108 -376 -168
-529 -168 -109 0 -209 42 -303 127 -46 41 -125 157 -141 206 -6 18 -14 37 -18
42 -5 6 -15 46 -24 91 -44 214 -4 470 132 864 22 63 65 187 96 275 112 324
155 554 118 641 -62 146 -350 39 -717 -267 -134 -112 -391 -369 -557 -557
l-136 -154 -13 -161 c-16 -186 -18 -451 -5 -819 l8 -258 -276 0 -276 0 -4 23
c-7 30 -24 202 -36 362 -6 72 -12 146 -15 165 -3 19 -12 128 -20 241 -13 164
-14 240 -5 380 22 373 100 832 234 1374 24 99 31 127 79 300 82 295 188 595
322 910 42 97 183 369 246 473 164 270 352 471 524 559 119 61 171 73 300 70
113 -2 124 -5 190 -36z"/>
<path d="M4159 7730 c-126 -67 -284 -365 -442 -840 -96 -286 -332 -1130 -316
-1130 17 0 272 277 386 420 245 306 416 597 501 856 98 296 102 587 11 685
-33 35 -85 38 -140 9z"/>
<path d="M3122 4869 c-14 -54 -53 -221 -82 -354 -12 -55 -24 -107 -26 -116
-12 -45 204 -164 404 -223 66 -19 69 -14 52 86 -16 95 -42 172 -97 283 -41 84
-162 273 -216 339 l-24 29 -11 -44z"/>
<path d="M2910 3953 c-1 -5 -7 -51 -15 -103 -100 -666 -88 -1119 37 -1341 63
-112 200 -102 313 23 138 153 211 470 231 1003 l7 184 -29 6 c-248 55 -351 96
-469 185 -68 51 -75 55 -75 43z"/>
<path d="M6505 7738 c-72 -48 -177 -198 -270 -388 -180 -368 -430 -1137 -529
-1630 -34 -171 -68 -372 -63 -377 5 -4 173 221 293 392 134 191 181 261 276
410 368 581 528 991 528 1356 0 194 -39 269 -139 269 -37 0 -59 -7 -96 -32z"/>
</g>
</svg>
